<?xml version="1.0" encoding="UTF-8"?>
<svg width="38px" height="38px" viewBox="0 0 38 38" version="1.1" xmlns="http://www.w3.org/2000/svg"
    xmlns:xlink="http://www.w3.org/1999/xlink">
    <title>VQ_Logo</title>
    <g id="Page-1" stroke="none" stroke-width="1" fill="none" fill-rule="evenodd">
        <polygon id="Clip-2"
            points="0 0.150800281 0 37.6650138 37.1775682 37.6650138 37.1775682 0.150800281 0 0.150800281">
        </polygon>
        <animateTransform attributeName="transform" attributeType="XML" type="rotate" from="360 19 19" to="0 19 19"
            dur="30s" repeatCount="indefinite" />
        <path
            d="M13.8285861,28.6633058 C13.3243027,28.5432691 13.0796539,28.4682461 12.6004627,28.2913315 C12.3484952,27.9699541 12.2237313,27.8080441 11.9839614,27.4817815 C12.4697742,27.6719559 12.7193021,27.752562 13.233692,27.8809734 C13.4661433,28.1953719 13.5849827,28.3562351 13.8285861,28.6633058 M15.6888934,29.6169697 C15.1821705,29.564977 14.9305516,29.5238017 14.4426478,29.4107438 C14.1934684,29.1274013 14.0714925,28.9724702 13.8285861,28.6633058 C14.3328695,28.7847383 14.5893674,28.8307989 15.1114244,28.885932 C15.3428302,29.1863728 15.4574876,29.3374656 15.6888934,29.6169697 M16.9675497,29.6630303 C17.1759543,29.9456749 17.2791111,30.0765289 17.4784546,30.3120661 C16.9867173,30.3235813 16.7427655,30.3176492 16.2569527,30.2712397 C16.0328655,30.032562 15.9178596,29.8968228 15.6888934,29.6169697 C16.1952678,29.6672176 16.4496747,29.6790817 16.9675497,29.6630303 M17.7889705,28.7777594 C18.3340287,28.6776125 18.6079518,28.6106152 19.157192,28.4193939 C19.3251703,28.7505418 19.4077654,28.9134986 19.5659856,29.2160331 C19.0453226,29.3831772 18.7835971,29.4452893 18.2622371,29.5321763 C17.7405286,29.6218549 17.4812426,29.6466299 16.9675497,29.6630303 C16.7567056,29.3831772 16.6497152,29.2327824 16.4381741,28.9274564 C15.9011315,28.9449036 15.6341784,28.9382736 15.1114244,28.885932 C14.8835037,28.5781635 14.7702403,28.4242792 14.5461531,28.114068 C15.0835442,28.16955 15.3581643,28.1814141 15.9112381,28.1562902 C16.4667513,28.1311662 16.747296,28.101157 17.3143098,27.9887971 C17.5031983,28.3031956 17.5990365,28.4654545 17.7889705,28.7777594 M17.3143098,27.9887971 C17.1257699,27.6698623 17.0334167,27.5114417 16.8553318,27.2148393 C17.4397708,27.0892195 17.7359981,27.0023324 18.3281041,26.7706336 C18.4863243,27.0825895 18.5682225,27.2497337 18.7365493,27.5829752 C18.1657019,27.795831 17.8802782,27.8715519 17.3143098,27.9887971 M19.157192,28.4193939 C18.9895622,28.0871993 18.903482,27.914472 18.7365493,27.5829752 C19.3087906,27.3715152 19.5956083,27.2403122 20.1678497,26.9217264 C20.3103873,27.2821855 20.3835729,27.4646832 20.5254135,27.8233976 C19.9779158,28.1105785 19.7043412,28.2295684 19.157192,28.4193939 M20.8672946,28.6880808 C20.7362576,28.3600735 20.665163,28.1835078 20.5254135,27.8233976 C21.0722142,27.5372635 21.3430007,27.3715152 21.8814374,26.9820937 C21.9964433,27.3764004 22.0539462,27.5752984 22.1525725,27.9423875 C21.6434101,28.2888889 21.3844726,28.4361433 20.8672946,28.6880808 M15.4111367,27.3994307 C15.2163237,27.1052709 15.120834,26.9653444 14.9490222,26.7064279 C15.5306732,26.6788613 15.8296884,26.6415243 16.4332951,26.5103214 C16.5911668,26.7706336 16.677247,26.9147475 16.8553318,27.2148393 C16.2708928,27.3394123 15.9805901,27.3736088 15.4111367,27.3994307 M17.3815709,25.0527824 C16.7323104,25.3186777 16.4106424,25.4121947 15.7770645,25.5430487 C15.6805293,25.428944 15.6390575,25.3940496 15.5836456,25.3846281 C16.231512,25.2680808 16.5639836,25.1763085 17.2296237,24.9142516 C17.268656,24.9097153 17.2968847,24.9425161 17.3815709,25.0527824 M17.6300533,25.4470891 C18.2608431,25.1850321 18.5804201,25.0224242 19.2171344,24.6207897 C19.3115787,24.8388797 19.3683846,24.9697337 19.4889665,25.2569146 C18.8735108,25.634123 18.5643889,25.7883563 17.9527667,26.0382002 C17.8116232,25.7677686 17.7461047,25.6494766 17.6300533,25.4470891 M19.8141195,26.045877 C19.676461,25.7084481 19.612685,25.5454913 19.4889665,25.2569146 C20.1058163,24.880404 20.4121501,24.6605693 21.0248178,24.1413407 C21.1234441,24.4595776 21.179553,24.6417264 21.2956044,25.0130028 C20.7052409,25.4907071 20.4083166,25.696584 19.8141195,26.045877 M20.8021246,23.4322865 C20.1678497,23.9874564 19.8521063,24.2188062 19.2171344,24.6207897 C19.1188567,24.407236 19.0749453,24.3182553 19.0129119,24.1989164 C19.6673999,23.7854178 19.9977804,23.5387144 20.6529655,22.9598163 C20.6937403,23.0931129 20.724757,23.1915152 20.8021246,23.4322865 M21.4081707,30.0493113 C20.9582538,30.2429752 20.7317271,30.3284665 20.2710065,30.4617631 C20.1535611,30.2824059 20.0863001,30.1703949 19.9451565,29.9174105 C20.4389848,29.7684114 20.6829367,29.6766391 21.1694464,29.4519192 C21.2778307,29.7300275 21.3273181,29.8514601 21.4081707,30.0493113 M21.5632544,30.4177961 C21.5221311,30.3235813 21.4904174,30.2429752 21.4081707,30.0493113 C21.8622697,29.8514601 22.0832204,29.7373554 22.5251218,29.4707622 C22.5672906,29.6996694 22.5815793,29.7903949 22.5815793,29.9062443 C22.1794072,30.1379431 21.9755331,30.2412305 21.5632544,30.4177961 M10.4366096,25.217135 C10.2717678,24.9606612 10.1947487,24.843416 10.0637117,24.6392837 C10.5505699,24.9125069 10.8077649,25.0321947 11.342368,25.2244628 C11.470617,25.3985859 11.5451966,25.5018733 11.7114324,25.7360147 C11.1785718,25.566079 10.9217253,25.4603489 10.4366096,25.217135 C10.6017998,25.4746556 10.6931075,25.6110927 10.888966,25.9076951 C10.4010623,25.6850689 10.1689595,25.5570064 9.72949765,25.2768044 C9.53677567,24.9606612 9.44546797,24.8088705 9.28655075,24.5244812 C9.71695155,24.8319008 9.94940283,24.97427 10.4366096,25.217135 M10.357848,27.1516804 C10.6084214,27.4995776 10.7373674,27.6719559 11.0032749,28.0024059 C11.4214781,28.2574839 11.6378983,28.3761249 12.0874667,28.5896786 C12.3505863,28.9037282 12.4861538,29.0530762 12.7534553,29.3329293 C13.1984933,29.5307805 13.425717,29.6169697 13.8857405,29.7684114 C14.0565068,29.9428834 14.1746493,30.0559412 14.3049893,30.1717906 C13.8526328,29.9959229 13.4117769,29.7963269 12.9855581,29.5691644 C12.9155091,29.5004224 12.8458086,29.4243526 12.7534553,29.3329293 C12.3624353,29.1633425 12.1421817,29.0513315 11.8065736,28.867787 C11.7539497,28.8328926 11.6992348,28.8011387 11.6473079,28.7658953 C11.3939464,28.4870891 11.2566364,28.3230854 11.0032749,28.0024059 C10.5829807,27.7473278 10.3805006,27.6101928 9.99435968,27.3205693 C9.73855872,26.9719743 9.61065824,26.7940129 9.37019139,26.4262259 C9.74448326,26.7339945 9.94138727,26.8784573 10.357848,27.1516804 M18.8020678,1.57059688 C10.6331651,1.57059688 4.01231128,8.19774105 4.01231128,16.3762902 C4.01231128,16.7685032 4.03322144,17.1586226 4.06354118,17.5459504 C4.06040465,17.9454913 4.07051123,18.1496235 4.10919503,18.5526538 C4.14718182,18.9542883 4.17575904,19.1521396 4.25382364,19.5523783 C4.33223674,19.9550597 4.38033011,20.1518641 4.49185096,20.5475666 C4.60650834,20.943618 4.67307235,21.1390266 4.82118599,21.5280992 C4.96895112,21.9161249 5.05015225,22.1094399 5.23067663,22.4897888 C5.41189802,22.8704867 5.51017578,23.0585675 5.71997439,23.4277502 C5.93116701,23.7972819 6.04303636,23.9815243 6.2817607,24.338843 C6.51978802,24.6951148 6.64559749,24.8713315 6.91045952,25.2119008 C7.17497305,25.5570064 7.3126316,25.7244995 7.60084332,26.0479706 C7.83747663,26.3159596 7.98280225,26.4750781 8.19678289,26.6903765 C8.60697053,27.1119008 9.04329588,27.5114417 9.50331941,27.8851607 C9.68837433,28.0373003 9.85217059,28.1674564 10.0982135,28.3510009 C10.4697173,28.6284114 10.6589543,28.7599633 11.0447467,29.0066667 C11.4319332,29.2551148 11.6312767,29.3716621 12.0310093,29.5897521 C12.4331814,29.8033058 12.6349644,29.9062443 13.0472431,30.0904867 C13.4595218,30.2712397 13.6682749,30.3560331 14.0906601,30.5025895 C14.5116513,30.6463545 14.724238,30.7095133 15.1539418,30.8194307 C15.0539215,30.7576676 14.9786449,30.7095133 14.9012773,30.6564738 C15.6467245,30.8606061 16.4158699,31.0078604 17.204183,31.0943985 C17.2379878,31.1132415 17.268656,31.1317355 17.3101278,31.1523232 C17.6453874,31.1708173 17.8527465,31.172562 18.1298061,31.1638384 C18.3511053,31.172562 18.575541,31.1798898 18.8020678,31.1798898 L18.8020678,31.122663 C19.0059418,31.1062626 19.1944818,31.0797429 19.4621318,31.0350781 C19.3391104,30.9555188 19.2701068,30.8885216 19.1171142,30.7164922 C18.6560451,30.7901194 18.4256849,30.8079155 17.9604338,30.8243159 C17.4976222,30.8403673 17.264474,30.8337374 16.8023594,30.7960514 C16.8480133,30.8354821 16.8870456,30.8661892 16.9229413,30.8972452 C16.5685141,30.8372268 16.2172234,30.7691827 15.8722058,30.6798531 C16.1952678,30.7370799 16.424234,30.7667401 16.8023594,30.7960514 C16.5922123,30.6173921 16.4813884,30.5099174 16.2569527,30.2712397 C15.7735795,30.2251791 15.5306732,30.1874931 15.0560125,30.0859504 C14.8127576,29.8375023 14.6897362,29.6996694 14.4426478,29.4107438 C13.951259,29.2980349 13.7097467,29.2303398 13.2371771,29.0649403 C12.9792851,28.7658953 12.8513846,28.6106152 12.6004627,28.2913315 C12.118832,28.1105785 11.8863807,28.0069421 11.4368122,27.7780349 C11.1806628,27.4451423 11.0583383,27.2748577 10.820311,26.9335904 C10.3700456,26.6903765 10.1560649,26.5553352 9.7500593,26.2653627 C9.51551701,25.9076951 9.40434465,25.7314784 9.19280353,25.3766024 C9.58696005,25.6850689 9.8019862,25.827438 10.2452816,26.089146 C10.4648383,26.4244812 10.5767076,26.5961616 10.820311,26.9335904 C11.2674399,27.179247 11.5002397,27.2909091 11.9839614,27.4817815 C11.7480251,27.1562167 11.6323222,26.9908173 11.4124171,26.6739761 C11.8968358,26.8784573 12.1488032,26.967787 12.6691177,27.1052709 C12.8869319,27.4085032 13.0005437,27.565877 13.233692,27.8809734 C13.744597,28.0069421 14.009459,28.057888 14.5461531,28.114068 C14.3231114,27.8080441 14.2154241,27.6489256 14.008762,27.3530211 C13.8010544,27.0578145 13.7024281,26.9147475 13.5170247,26.6509458 C14.0763715,26.718292 14.3645832,26.7339945 14.9490222,26.7064279 C14.7747709,26.4468136 14.6946152,26.3302663 14.5461531,26.1278788 C15.1420927,26.1055464 15.4484265,26.070652 16.0677158,25.9370064 C15.9352848,25.740202 15.8767363,25.6582002 15.7770645,25.5430487 C15.1420927,25.6742516 14.8319253,25.7084481 14.2227426,25.715427 C13.6107719,25.7224059 13.3128021,25.696584 12.7360302,25.5960882 C12.6137058,25.4491827 12.5617789,25.3919559 12.4798807,25.3301928 C11.8968358,25.2063177 11.6128061,25.1121028 11.0722784,24.8845914 C10.5348873,24.6574288 10.2773439,24.5199449 9.79153112,24.2100826 C9.30780941,23.8991736 9.08023717,23.72191 8.66168545,23.3412121 C8.74393209,23.5244077 8.79969251,23.6318825 8.92271396,23.8705601 C8.49684369,23.5306887 8.29924267,23.3457484 7.94307294,22.9573737 C7.82562754,22.6799633 7.77788267,22.5522498 7.70190909,22.3226446 C7.35793695,21.890303 7.20529278,21.6613958 6.94252176,21.1892746 C6.68219027,20.7188981 6.57206342,20.4753352 6.40269112,19.9829752 C6.25422898,19.54191 6.16675481,19.2850872 6.10541834,18.8838017 C6.08903872,18.6175574 6.06603754,18.3579431 6.06603754,18.0878604 C6.06603754,10.9917355 11.7459341,5.23206612 18.8020678,5.09458219 C27.8164379,5.09458219 35.12663,12.3089991 35.12663,21.3375758 C35.12663,30.3096235 27.9077456,37.5837098 18.9696975,37.67618 C19.0292915,37.67618 19.0815669,37.6859504 19.1415094,37.6859504 C29.1024128,37.6859504 37.1775682,29.6012672 37.1775682,19.6270523 C37.1775682,9.65423324 29.4829777,1.57059688 18.8020678,1.57059688"
            id="Fill-1" fill="#DE5C0F"></path>
        <path
            d="M24.7266132,31.2392103 C24.6482001,31.1634894 24.8363916,31.0490358 24.8764694,31.0909091 C24.9541855,31.1687236 24.7684335,31.2828283 24.7266132,31.2392103 M27.1375547,28.525124 C27.1535858,28.7083196 26.9190435,28.6168962 27.1375547,28.525124 C27.1225691,28.3415794 27.3567629,28.4337006 27.1375547,28.525124 M24.7266132,8.45910009 C24.6482001,8.38093664 24.8363916,8.26648301 24.8764694,8.3076584 C24.9541855,8.38547291 24.7684335,8.50167126 24.7266132,8.45910009 M23.6706501,7.85612489 C23.789141,7.88822773 23.9693169,7.85786961 23.9724534,8.00582185 C24.0895503,8.04001837 24.2704232,8.00931129 24.2742567,8.1569146 C24.900516,8.01210285 24.304925,8.60844812 24.2742567,8.1569146 C24.1568113,8.12271809 23.9759384,8.15237833 23.9724534,8.00582185 C23.856402,7.97092746 23.6755291,8.00128558 23.6706501,7.85612489 C23.0454363,7.99884298 23.6413759,7.40354454 23.6706501,7.85612489 M22.4658764,7.40214876 C22.6429157,7.42448118 22.8941861,7.37667585 22.9178843,7.55289256 C23.5441436,7.40808081 22.9492496,8.00582185 22.9178843,7.55289256 C22.7411935,7.52707071 22.489923,7.57836547 22.4658764,7.40214876 C21.6664112,7.56475666 22.287443,6.94293848 22.4658764,7.40214876 M21.4109588,7.25245179 C21.436051,7.07379247 21.6859274,7.12473829 21.8636637,7.10135904 C21.8385716,7.27722681 21.5886951,7.22662994 21.4109588,7.25245179 M20.9582538,7.10135904 C20.9641783,6.95375574 21.1426117,6.98411387 21.2611026,6.94956841 C21.2562236,7.09717172 21.0767447,7.06681359 20.9582538,7.10135904 M7.84862872,3.32962351 C7.44088059,3.58923783 7.20355027,3.9102663 6.79440813,4.23408632 C6.59157957,4.39460055 6.34135465,4.40123049 6.19219551,4.53487603 C5.62936369,5.04084481 4.78075968,5.84690542 4.23326198,6.49803489 C4.13010519,6.61981635 4.18865364,6.83476584 4.08236032,6.94956841 C3.7931031,7.26257117 3.36026278,7.78703398 3.02709422,8.3076584 C1.36125144,10.9093848 -0.152295668,14.5450321 0.0121975936,19.0219835 C0.113611872,21.7071074 0.865332139,24.5108724 1.97252513,26.7148026 C2.90999733,28.5802571 4.62253947,30.7897704 6.19219551,32.1475115 C6.51246947,32.4231772 6.99410016,32.6088154 7.39766626,32.9022773 C7.57435711,33.0313866 7.79008027,33.2051607 7.99918187,33.3524151 C10.8265841,35.3487236 15.9994093,37.2982736 21.2611026,36.3707805 C27.6094273,35.2510193 33.1081025,29.7555005 33.6169164,22.6408815 C33.8552922,19.3081175 32.9021374,16.2419467 31.5077782,13.8893664 C31.4021819,13.7131497 31.3143593,13.455978 31.2073689,13.2884848 C31.1690336,13.2291644 30.9271728,13.1855464 30.9038231,13.1346006 C30.6797359,12.6373554 30.1137675,12.0246097 29.6990494,11.4764187 C29.3345156,10.9917355 28.8089735,10.6410468 28.1928208,10.1179798 C27.8122559,9.79415978 27.4804813,9.29272727 27.1375547,9.06242424 C26.7873095,8.82653811 26.0634695,8.60146924 25.4790305,8.3076584 C24.0756102,7.60139578 22.0811294,6.78905418 20.0542379,6.64912764 C18.5239626,6.53955923 17.3763433,6.64459137 16.289015,7.25245179 C18.2845413,7.263618 20.2277922,7.33061524 21.7120651,7.85612489 C22.358886,7.8610101 22.8227431,8.05118457 23.2186421,8.3076584 C23.5932825,8.2846281 23.8455984,8.38547291 23.9724534,8.61089073 C24.4262039,8.51213958 24.7234767,8.90609734 25.027371,9.06242424 C25.3364929,9.21805326 25.9292959,9.17269054 25.932781,9.66644628 C25.2978091,9.29447199 24.5237847,9.06521579 23.9724534,8.61089073 C23.5981616,8.63043159 23.3479366,8.53307622 23.2186421,8.3076584 C22.5714727,8.30067952 22.1111006,8.11050505 21.7120651,7.85612489 C20.7662288,7.68828283 19.5569245,7.64257117 18.3981532,7.55289256 C17.3313865,7.47054178 16.0966415,7.08565657 15.3832565,7.85612489 C15.6655437,8.31498623 16.2189659,8.1886685 16.8905306,8.3076584 C17.4603325,8.40885216 18.319043,8.1886685 18.3981532,8.7605877 C17.8597165,8.34080808 16.9285174,8.55366391 16.1370678,8.61089073 C15.7470933,8.63601469 15.3055404,8.28707071 14.9305516,8.45910009 C14.6716141,8.57843893 14.7793014,8.995427 14.4788921,9.21212121 C15.5352037,9.31331497 16.9905509,9.01496786 17.794198,9.36321396 C17.3561302,9.37961433 16.7173248,9.34506887 16.1370678,9.36321396 C15.6641497,9.37961433 14.8179852,9.1255831 14.7799984,9.66644628 C15.7369867,10.2648852 17.9959811,9.56525253 18.5473123,10.5698623 C17.4610295,11.1847016 16.4953286,9.68668503 15.5345067,10.5698623 C15.9669985,10.540202 16.3008641,10.608595 16.4381741,10.8727456 C16.6214865,10.8566942 16.5319213,11.0925803 16.4381741,10.8727456 C15.6432395,11.0608264 14.8981408,10.409348 14.3283389,10.8727456 C14.9559922,11.0489624 15.7470933,11.0608264 16.4381741,11.175978 C16.9260779,11.3612672 16.5535285,10.6850138 17.0403867,10.8727456 C18.3214826,10.9899908 20.4020435,11.0402388 21.8636637,11.4764187 C22.7391025,11.7377778 23.3684983,12.0312397 24.1247491,12.534068 C24.2965609,12.646079 24.4094758,12.8659137 24.5764086,12.9859504 C24.7848132,13.1346006 25.031553,13.1618182 25.1782727,13.2884848 C26.0352407,14.0111478 26.9420447,15.1996511 27.5906082,16.302314 C30.0015497,20.4226446 28.9685878,26.7263177 25.4790305,29.883214 C23.7947171,31.4067034 21.4813563,32.5104132 19.0010628,32.7515335 C18.0677726,32.8412121 16.6110314,32.8813407 15.5345067,32.7515335 C14.8469109,32.6639486 14.2380767,32.3907254 13.425717,32.1475115 C10.7122752,31.3334252 8.28774209,29.5374105 6.49295332,27.6189164 C4.1182561,25.0841873 2.4109415,21.8515702 2.12272979,17.8118457 C1.76307503,12.7650689 3.53869615,8.77943067 6.04094535,5.89401286 C8.10547519,3.5159596 10.8074164,1.62049587 14.0279296,0.611698806 C11.6413833,0.987860422 9.64446299,2.17636364 7.84862872,3.32962351 M14.6301422,0.462001837 C14.3924634,0.473865932 14.0551128,0.388374656 14.0279296,0.611698806 C14.2663055,0.599834711 14.6026105,0.684628099 14.6301422,0.462001837 M14.6301422,0.462001837 C15.5958432,0.637171717 14.9605228,0.000348943985 14.6301422,0.462001837 M15.6843628,0.310909091 C15.6076922,0.233094582 15.7944897,0.117594123 15.8373555,0.159816345 C15.9147231,0.237979798 15.7275772,0.352084481 15.6843628,0.310909091"
            id="Fill-3" fill="#DEDEDE"></path>

    </g>
</svg>